<?xml version="1.0" encoding="iso-8859-1"?>
<!-- Generator: Adobe Illustrator 19.0.0, SVG Export Plug-In . SVG Version: 6.00 Build 0)  -->
<svg version="1.1" id="Capa_1" xmlns="http://www.w3.org/2000/svg" xmlns:xlink="http://www.w3.org/1999/xlink" x="0px" y="0px"
	 viewBox="0 0 480 480" style="enable-background:new 0 0 480 480;" xml:space="preserve">
<g>
	<g>
		<path d="M432,152c-13.255,0-24,10.745-24,24s10.745,24,24,24s24-10.745,24-24S445.255,152,432,152z M432,184c-4.418,0-8-3.582-8-8
			s3.582-8,8-8s8,3.582,8,8S436.418,184,432,184z"/>
	</g>
</g>
<g>
	<g>
		<path d="M472,0h-32c-2.126-0.012-4.17,0.823-5.68,2.32l-120,120c-3.137,3.111-3.158,8.177-0.046,11.314
			c0.015,0.016,0.031,0.031,0.046,0.046l18.4,18.32L308,176.72L240,192l-68-15.12L147.28,152l18.4-18.32
			c3.137-3.111,3.158-8.177,0.046-11.314c-0.015-0.016-0.031-0.031-0.046-0.046l-120-120C44.17,0.823,42.127-0.012,40,0H8
			C3.582,0,0,3.582,0,8v272c0.016,3.23,1.973,6.133,4.96,7.36C5.91,287.808,6.951,288.027,8,288c2.126,0.012,4.17-0.823,5.68-2.32
			L32,267.28l26.32,26.4l60.32,60.24c-8.214,15.355-5.314,34.288,7.12,46.48l67.84,67.92c7.516,7.497,17.704,11.699,28.32,11.68
			c9.624-0.033,18.902-3.59,26.08-10c5.196,4.183,11.65,6.494,18.32,6.56c6.254,0.043,12.33-2.077,17.2-6
			c6.142-5.023,9.887-12.398,10.32-20.32v-1.68c7.469-0.008,14.652-2.87,20.08-8c5.183-5.264,8.061-12.373,8-19.76
			c7.511,0.221,14.779-2.674,20.08-8c5.247-5.353,8.128-12.586,8-20.08h2c7.912-0.403,15.289-4.12,20.32-10.24
			c8.564-11.128,7.855-26.811-1.68-37.12l50.88-50.88l26.48-27.2l18.32,18.4c1.51,1.497,3.554,2.332,5.68,2.32
			c1.049,0.027,2.091-0.192,3.04-0.64c2.987-1.227,4.944-4.13,4.96-7.36V8C480,3.582,476.418,0,472,0z M16,260.72V16h20.72l112,112
			L16,260.72z M43.28,256L136,163.28L156.72,184L64,276.72L43.28,256z M75.28,288l95.28-95.2L224,204.64l-85.68,85.68
			c-3.137,3.111-3.158,8.177-0.046,11.314c0.015,0.016,0.031,0.031,0.046,0.046c6.959,6.921,15.582,11.935,25.04,14.56
			c-7.038,0.59-13.641,3.65-18.64,8.64l-16,16L75.28,288z M130,372.08c0.006-6.363,2.538-12.463,7.04-16.96L156.08,336
			c2.555-2.594,6.039-4.062,9.68-4.08c2.576-0.024,5.085,0.821,7.12,2.4c2.635,2.162,4.257,5.319,4.48,8.72
			c0.119,3.345-1.156,6.59-3.52,8.96c-0.34,0.376-0.611,0.81-0.8,1.28l-36.48,34.8C132.461,383.747,130.123,378.043,130,372.08z
			 M147.76,400l38.96-37.28c5.217-3.942,12.642-2.907,16.584,2.31c3.229,4.274,3.186,10.183-0.104,14.41v-0.16l-38.8,37.12
			L147.76,400z M192,444.48l-16-16.8l36.8-35.12l0.96-0.64c4.703-4.636,12.257-4.636,16.96,0c3.608,3.938,4.132,9.804,1.28,14.32
			L192,444.48z M238.88,457.2c-9.571,8.954-24.477,8.849-33.92-0.24l-1.2-0.96l35.12-33.76c1.046-0.385,1.999-0.985,2.8-1.76
			c2.373-2.46,5.71-3.747,9.12-3.52c3.402,0.154,6.575,1.755,8.72,4.4c3.784,5.243,3.063,12.485-1.68,16.88L238.88,457.2z
			 M273.872,458.102c-0.116,0.102-0.233,0.201-0.352,0.298v-0.24c-4.037,2.994-9.493,3.216-13.76,0.56l9.44-9.44
			c2.347-2.332,4.293-5.035,5.76-8C279.305,446.226,278.818,453.757,273.872,458.102z M360,371.52c-2.163,2.665-5.37,4.269-8.8,4.4
			c-3.377,0.269-6.696-0.994-9.04-3.44c-0.408-0.32-0.835-0.614-1.28-0.88l-39.28-41.12l-11.52,11.04l41.84,43.84
			c4.045,5.138,3.16,12.582-1.977,16.627c-4.582,3.608-11.109,3.342-15.383-0.627l-44.96-46.72l-11.52,11.04L302,411.44
			c0,0,0,0.56,0.56,0.8c2.251,2.248,3.517,5.298,3.52,8.48c-0.02,3.178-1.284,6.222-3.52,8.48c-4.77,4.471-12.19,4.471-16.96,0
			c-2.108-2.067-5.183-2.805-8-1.92c-0.143-5.829-2.195-11.449-5.84-16c-5.023-6.142-12.398-9.887-20.32-10.32h-1.68
			c0.138-7.496-2.745-14.732-8-20.08c-5.401-5.173-12.602-8.042-20.08-8c0.07-7.389-2.81-14.501-8-19.76
			c-5.415-5.151-12.607-8.016-20.08-8c0.038-0.586,0.038-1.174,0-1.76c-0.403-7.912-4.12-15.289-10.24-20.32
			c-2.089-1.616-4.408-2.91-6.88-3.84c14.056,0.522,27.7-4.808,37.68-14.72l26.64-28.32c15.484,12.569,35.394,18.34,55.2,16
			L339.52,336l18.96,18.96C362.96,359.37,363.602,366.369,360,371.52z M360,333.04l-46.32-46.96l2.32-0.88l1.28-0.8l8-6l-9.6-12.8
			l-7.36,5.6c-21.387,8.999-46.109,3.877-62.16-12.88c-3.066-3.181-8.131-3.274-11.312-0.208c-0.071,0.068-0.14,0.138-0.208,0.208
			l-32,33.84c-6.946,7.144-16.705,10.836-26.64,10.08c-7.321-0.348-14.405-2.7-20.48-6.8l88-88l65.44-14.48L404.72,288L360,333.04z
			 M416,277.04L323.28,184L344,163.28L436.72,256L416,277.04z M464,261.04l-10.32-10.4l-104-104L331.28,128l112-112H464V261.04z"/>
	</g>
</g>
<g>
	<g>
		<path d="M48,152c-13.255,0-24,10.745-24,24s10.745,24,24,24s24-10.745,24-24S61.255,152,48,152z M48,184c-4.418,0-8-3.582-8-8
			s3.582-8,8-8s8,3.582,8,8S52.418,184,48,184z"/>
	</g>
</g>
<g>
	<g>
		<path d="M72,368H56c0,30.928,25.072,56,56,56v-16C89.909,408,72,390.091,72,368z"/>
	</g>
</g>
<g>
	<g>
		<path d="M32,368H16c0,53.019,42.981,96,96,96v-16C67.817,448,32,412.183,32,368z"/>
	</g>
</g>
<g>
	<g>
		<path d="M400,368c0,22.091-17.909,40-40,40v16c30.928,0,56-25.072,56-56H400z"/>
	</g>
</g>
<g>
	<g>
		<path d="M440,368c0,44.183-35.817,80-80,80v16c53.019,0,96-42.981,96-96H440z"/>
	</g>
</g>
<g>
</g>
<g>
</g>
<g>
</g>
<g>
</g>
<g>
</g>
<g>
</g>
<g>
</g>
<g>
</g>
<g>
</g>
<g>
</g>
<g>
</g>
<g>
</g>
<g>
</g>
<g>
</g>
<g>
</g>
</svg>
