<?xml version="1.0" encoding="iso-8859-1"?>
<!-- Generator: Adobe Illustrator 19.0.0, SVG Export Plug-In . SVG Version: 6.00 Build 0)  -->
<svg version="1.1" id="Layer_1" xmlns="http://www.w3.org/2000/svg" xmlns:xlink="http://www.w3.org/1999/xlink" x="0px" y="0px"
	 viewBox="0 0 512 512" style="enable-background:new 0 0 512 512;" xml:space="preserve">
<g>
	<g>
		<polygon points="86.492,432.205 58.002,458.322 58.002,503.916 74.17,503.916 74.17,465.434 97.418,444.124 		"/>
	</g>
</g>
<g>
	<g>
		<polygon points="147.136,432.205 136.21,444.124 159.458,465.434 159.458,503.916 175.627,503.916 175.627,458.322 		"/>
	</g>
</g>
<g>
	<g>
		<path d="M140.91,358.939c0,4.671-0.981,7.973-2.917,9.821c-4.088,3.899-26.873,2.828-29.196,2.828v16.168
			c1.943,0,19.981,0.383,22.412,0.121v17.502c0,7.974-6.488,14.462-14.462,14.462c-7.974,0-14.462-6.488-14.462-14.462V389.12
			H86.116v16.258c0,16.89,13.741,30.631,30.631,30.631s30.63-13.741,30.63-30.631v-23.403c0.607-0.474,1.204-0.971,1.776-1.518
			c5.258-5.017,7.925-12.257,7.925-21.518H140.91z"/>
	</g>
</g>
<g>
	<g>
		<polygon points="225.541,432.205 197.05,458.322 197.05,503.916 213.218,503.916 213.218,465.434 236.466,444.124 		"/>
	</g>
</g>
<g>
	<g>
		<polygon points="286.184,432.205 275.259,444.124 298.507,465.434 298.507,503.916 314.675,503.916 314.675,458.322 		"/>
	</g>
</g>
<g>
	<g>
		<path d="M279.958,358.939c0,4.671-0.981,7.973-2.917,9.821c-4.087,3.899-26.873,2.828-29.196,2.828v16.168
			c1.943,0,19.981,0.383,22.412,0.121v17.502c0,7.974-6.488,14.462-14.462,14.462c-7.974,0-14.462-6.488-14.462-14.462V389.12
			h-16.168v16.258c0,16.89,13.741,30.631,30.631,30.631s30.631-13.741,30.631-30.631v-23.403c0.607-0.474,1.204-0.971,1.776-1.518
			c5.258-5.017,7.925-12.257,7.925-21.518H279.958z"/>
	</g>
</g>
<g>
	<g>
		<polygon points="364.589,432.205 336.098,458.322 336.098,503.916 352.267,503.916 352.267,465.434 375.515,444.124 		"/>
	</g>
</g>
<g>
	<g>
		<polygon points="425.233,432.205 414.307,444.124 437.555,465.434 437.555,503.916 453.724,503.916 453.724,458.322 		"/>
	</g>
</g>
<g>
	<g>
		<path d="M419.007,358.939c0,4.671-0.981,7.973-2.917,9.821c-4.088,3.899-26.873,2.828-29.196,2.828v16.168
			c1.943,0,19.981,0.383,22.412,0.121v17.502c0,7.974-6.488,14.462-14.462,14.462s-14.462-6.488-14.462-14.462V389.12h-16.168
			v16.258c0,16.89,13.741,30.631,30.631,30.631s30.63-13.741,30.63-30.631v-23.403c0.607-0.474,1.204-0.971,1.776-1.518
			c5.258-5.017,7.925-12.257,7.925-21.518H419.007z"/>
	</g>
</g>
<g>
	<g>
		<rect x="248.25" y="93.238" width="16.168" height="16.168"/>
	</g>
</g>
<g>
	<g>
		<rect x="248.25" y="120.185" width="16.168" height="52.817"/>
	</g>
</g>
<g>
	<g>
		<path d="M280.497,8.084c0,4.671-0.981,7.973-2.917,9.821c-4.087,3.9-26.873,2.828-29.196,2.828v16.168
			c1.943,0,19.981,0.383,22.412,0.121v17.502c0,7.974-6.488,14.462-14.462,14.462c-7.974,0-14.462-6.488-14.462-14.462V38.265
			h-16.168v16.258c0.001,16.89,13.741,30.631,30.631,30.631s30.63-13.741,30.63-30.631V31.12c0.607-0.474,1.204-0.971,1.776-1.518
			c5.258-5.017,7.925-12.257,7.925-21.518H280.497z"/>
	</g>
</g>
<g>
	<g>
		<polygon points="315.214,178.929 315.214,107.467 286.723,81.35 275.798,93.269 299.046,114.579 299.046,178.929 212.679,178.929 
			212.679,114.579 235.927,93.269 225.002,81.35 196.511,107.467 196.511,178.929 129.143,178.929 129.143,227.435 151.402,227.435 
			161.513,338.651 177.614,338.651 166.167,211.266 145.311,211.266 145.311,195.098 366.279,195.098 366.279,211.266 
			345.423,211.266 333.976,338.651 350.078,338.651 360.188,227.435 382.448,227.435 382.448,178.929 		"/>
	</g>
</g>
<g>
	<g>
		<path d="M183.242,50.978V10.779H0v123.958h183.242V95.102l24.509-23.19L183.242,50.978z M167.074,88.141v30.428H16.168V26.947
			h150.905v31.484l16.503,14.095L167.074,88.141z"/>
	</g>
</g>
<g>
	<g>
		<g>
			<rect x="39.905" y="65.286" width="16.168" height="16.168"/>
			<rect x="128.292" y="65.286" width="16.168" height="16.168"/>
			<rect x="84.098" y="65.286" width="16.168" height="16.168"/>
		</g>
	</g>
</g>
<g>
	<g>
		<path d="M328.758,16.168v40.199L304.25,77.301l24.508,23.19v39.635H512V16.168H328.758z M495.832,123.958H344.926V93.53
			l-16.503-15.614l16.503-14.095V32.337h150.905V123.958z"/>
	</g>
</g>
<g>
	<g>
		<g>
			<rect x="368.498" y="69.818" width="16.168" height="16.168"/>
			<rect x="412.691" y="69.818" width="16.168" height="16.168"/>
			<rect x="456.885" y="69.818" width="16.168" height="16.168"/>
		</g>
	</g>
</g>
<g>
</g>
<g>
</g>
<g>
</g>
<g>
</g>
<g>
</g>
<g>
</g>
<g>
</g>
<g>
</g>
<g>
</g>
<g>
</g>
<g>
</g>
<g>
</g>
<g>
</g>
<g>
</g>
<g>
</g>
</svg>
