<svg><symbol id="icon-codepen" viewBox="0 0 31.665 31.665"><path d="M16.878.415a2.501 2.501 0 0 0-2.809.034L1.485 9.214a2.5 2.5 0 0 0-1.071 2.052v9.444c0 .84.421 1.623 1.122 2.086l12.79 8.455a2.5 2.5 0 0 0 2.758 0l13.044-8.618a2.501 2.501 0 0 0 1.122-2.086v-9.279a2.5 2.5 0 0 0-1.121-2.085L16.878.415zm9.743 10.23L21.8 13.882l-4.521-3.288-.029-6.467 9.371 6.518zM13.979 4.133v6.329l-4.633 3.24-4.621-3.099 9.254-6.47zM3.458 13.722l2.991 2.004-2.991 2.093v-4.097zm10.6 13.493l-9.331-6.258 4.661-3.258 4.67 3.133v6.383zm-1.772-11.541l3.021-2.113 3.519 2.313-3.119 2.095-3.421-2.295zm5.068 11.541V20.83l4.463-2.991 4.805 3.159-9.268 6.217zm10.6-9.288l-3.168-2.082 3.168-2.125v4.207z"/></symbol><symbol id="icon-facebook" viewBox="0 0 15 32"><path d="M14.982.013v5.146s-3.793-.375-4.746 1.074c-.52.799-.211 3.123-.257 4.796h5.032c-.425 1.948-.729 3.272-1.043 4.971H9.951v15.988H2.979V16.063H.013v-5.034h2.934c.15-3.685.206-7.332 2.035-9.18C7.038-.237 9.001.013 14.983.013z"/></symbol><symbol id="icon-instagram" viewBox="0 0 32 32"><path d="M27.962 31.988H3.981a3.997 3.997 0 0 1-3.997-3.997V4.01A3.997 3.997 0 0 1 3.981.013h23.981a3.997 3.997 0 0 1 3.997 3.997v23.981a3.997 3.997 0 0 1-3.997 3.997zM15.971 9.805h-.001a6.187 6.187 0 0 0-5.603 3.559l-.016.038a.343.343 0 0 1-.028.064l.001-.001c-.059.137-.11.275-.16.412-.024.062-.05.125-.071.187-.046.137-.084.287-.125.425a4.512 4.512 0 0 0-.052.2c-.032.15-.055.3-.076.462-.009.062-.021.125-.029.187a5.87 5.87 0 0 0-.036.661V16a6.195 6.195 0 1 0 12.39 0 6.56 6.56 0 0 0-.039-.691l.003.029c-.008-.062-.02-.125-.029-.187a5.709 5.709 0 0 0-.076-.462 8.453 8.453 0 0 0-.052-.2c-.035-.137-.072-.287-.125-.425-.021-.062-.047-.125-.071-.187a7.763 7.763 0 0 0-.16-.412.297.297 0 0 1-.027-.06l-.001-.002c-1.004-2.14-3.139-3.596-5.615-3.597zm12.391-4.597v-.003c0-.882-.715-1.596-1.596-1.596h-3.203c-.882 0-1.596.715-1.596 1.596v3.203c0 .882.715 1.596 1.596 1.596h3.203c.882 0 1.596-.715 1.596-1.596v-3.2zm0 8.194h-2.948c.222.778.35 1.671.35 2.594 0 5.408-4.384 9.792-9.792 9.792S6.18 21.404 6.18 15.996c0-.923.128-1.816.366-2.663l-.017.069H3.581v13.393c0 .882.715 1.596 1.596 1.596h21.589c.882 0 1.596-.715 1.596-1.596V13.402z"/></symbol><symbol id="icon-pinterest" viewBox="0 0 24 32"><path d="M10.173 20.771c-.261 1.049-.525 2.136-.797 3.197a23.478 23.478 0 0 1-.95 3.249l.054-.163a15.88 15.88 0 0 1-2.574 4.436l.022-.027c-.718.824-.566.5-.782.45-.165-.037-.179-.2-.211-.425a24.211 24.211 0 0 1 .016-4.266l-.007.094c.115-1.598.376-3.08.774-4.506l-.038.159c.605-2.573 1.182-5.096 1.792-7.694.063-.162.104-.35.112-.546v-.004a7.84 7.84 0 0 1-.532-2.086l-.003-.037a6.8 6.8 0 0 1 .184-2.483l-.011.047a4.044 4.044 0 0 1 2.34-2.913l.026-.01a2.747 2.747 0 0 1 2.182.182l-.015-.007a2.32 2.32 0 0 1 1.081 1.534l.002.015a5.598 5.598 0 0 1-.108 2.4l.009-.039c-.334 1.524-.772 2.673-1.17 4.134a4.597 4.597 0 0 0-.233 2.287l-.003-.025a2.654 2.654 0 0 0 1.05 1.593l.008.005a3.09 3.09 0 0 0 2.04.574l-.01.001a4.466 4.466 0 0 0 3.301-1.945l.01-.016a11.521 11.521 0 0 0 2.09-5.819l.002-.039a14.831 14.831 0 0 0 .086-2.547l.002.037a6.815 6.815 0 0 0-1.419-3.913l.012.016a6.62 6.62 0 0 0-3.091-2.123l-.047-.013a10.12 10.12 0 0 0-2.958-.432c-.608 0-1.205.053-1.784.153l.062-.009A8.284 8.284 0 0 0 4.57 7.61l-.022.046a8.733 8.733 0 0 0-1.046 4.173v.091-.005a5.524 5.524 0 0 0 .86 3.146l-.013-.022c.166.25.41.462.572.749a2.132 2.132 0 0 1-.154 1.461l.006-.013c-.137.537-.152 1.262-.772 1.274a1.714 1.714 0 0 1-.802-.303l.005.004a6.394 6.394 0 0 1-3.022-4.64l-.003-.032c-.118-.607-.185-1.304-.185-2.017s.067-1.411.196-2.086l-.011.069a11.591 11.591 0 0 1 5.442-7.652l.054-.029A12.78 12.78 0 0 1 10.488.158l.067-.007c.59-.089 1.283-.147 1.987-.162h.018a11.993 11.993 0 0 1 5.48 1.029l-.076-.03c1.461.655 2.7 1.562 3.714 2.676l.008.009a10.137 10.137 0 0 1 2.273 4.063l.017.072c.292.849.472 1.829.499 2.847v.013a17.325 17.325 0 0 1-.407 3.076l.022-.116a11.66 11.66 0 0 1-4.759 8.033l-.035.024a8.568 8.568 0 0 1-5.012 1.374h.016a5.785 5.785 0 0 1-2.506-.739l.029.015a4.161 4.161 0 0 1-1.637-1.543l-.01-.019z"/></symbol><symbol id="icon-twitter" viewBox="0 0 39 32"><path d="M26.811.015a8.277 8.277 0 0 1 6.387 2.537l.003.003a13.3 13.3 0 0 0 4.212-1.436l-.07.035L38.348.6a8.157 8.157 0 0 1-2.602 3.79l-.015.012a3.882 3.882 0 0 1-.867.621l-.021.01v.015a14.998 14.998 0 0 0 4.67-1.27l-.094.038v.015a13.234 13.234 0 0 1-2.721 3.123l-.021.017c-.42.339-.842.677-1.262 1a23.448 23.448 0 0 1-.397 5.348l.023-.146c-2.019 9.066-7.37 15.223-15.837 17.87-2.009.597-4.318.941-6.707.941-1.675 0-3.31-.169-4.889-.491l.157.027a30.287 30.287 0 0 1-4.951-1.631l.2.076A19.495 19.495 0 0 1 .638 28.73l.087.05c-.237-.139-.473-.292-.71-.431a14.064 14.064 0 0 0 2.62.09l-.038.002c.796-.123 1.575-.092 2.309-.246a16.55 16.55 0 0 0 4.934-1.798l-.084.043a9.196 9.196 0 0 0 2.2-1.44l-.01.009a7.026 7.026 0 0 1-2.454-.447l.049.016c-2.432-.84-4.308-2.73-5.112-5.114l-.017-.057a8.014 8.014 0 0 0 3.666-.183l-.056.014a5.792 5.792 0 0 1-2.659-1.073l.016.011c-2.296-1.372-3.81-3.845-3.81-6.671 0-.084.001-.168.004-.252v.012c.277.123.553.262.828.385.486.204 1.055.37 1.646.471l.047.007a2.17 2.17 0 0 0 1.119.09l-.013.002h-.04c-.406-.462-1.07-.785-1.479-1.293a8.219 8.219 0 0 1-2.036-5.429c0-.673.081-1.327.232-1.954l-.012.056a9.197 9.197 0 0 1 .892-2.154l-.024.045c.014 0 .026.015.04.015.216.319.457.597.726.843l.004.003c.716.862 1.505 1.62 2.371 2.283l.035.026a23.59 23.59 0 0 0 9.721 4.741l.159.03c1.084.287 2.333.46 3.619.477h.011a7.39 7.39 0 0 1-.224-1.827c0-.703.096-1.383.275-2.028l-.013.053A7.987 7.987 0 0 1 23.982.709l.051-.02a8.701 8.701 0 0 1 1.736-.544l.058-.01c.326-.046.656-.077.984-.123z"/></symbol><symbol id="icon-github" viewBox="0 0 90 90"><path d="M65.709 10.5c1.17 2.657 1.928 7.07.797 10.301 4.625 3.949 6.215 13.549 3.982 21.394 6.592.503 14.444-.242 19.512 1.781-4.738-.609-11.209-1.804-17.32-1.388-1.158.079-2.873-.044-2.789 1.585 7.074.555 14.104 1.16 19.912 2.973-5.761-.941-12.754-2.375-19.912-2.574-2.957 5.835-8.908 8.703-17.123 9.307.883 1.922 2.574 2.653 2.987 5.744.616 4.618-.964 11.381.595 14.459.748 1.475 1.967 1.514 2.789 2.775-2.012 2.381-7-.268-7.568-2.775-.973-4.295 1.482-10.953-1.192-13.865.188 4.685-1.108 11.264.199 15.449.515 1.646 2.002 2.281 1.593 3.766-9.352.949-5.443-12.104-6.972-19.81-1.411.101-.791 2.113-.796 2.972-.04 7.524 1.54 17.844-6.57 16.838-.237-1.582 1.088-2.119 1.593-3.563 1.479-4.233-.277-10.542.401-15.651-3.095 2.334.325 10.48-1.593 14.657-1.105 2.404-4.666 3.45-7.367 2.377.352-1.79 2.2-1.501 2.984-3.169 1.096-2.324.008-5.674.399-9.111-5.729 1.144-10.173-.166-12.348-3.764-.973-1.615-1.214-3.52-2.39-4.951-1.17-1.432-3.04-1.625-3.582-3.563 7.095-1.708 7.367 7.302 13.739 7.524 1.954.071 2.97-.563 4.778-.988.506-2.272 1.589-3.967 3.186-5.153-7.929-1.085-14.477-3.554-17.522-9.504-7.208.354-13.804 1.317-19.913 2.771 5.545-2.014 12.384-2.736 19.715-2.973-.432-2.596-4.219-1.882-6.57-1.782-4.37.192-9.87.735-13.343 1.387 5.034-1.795 12.098-1.571 18.918-1.585-2.086-6.54-1.363-16.929 3.186-20.798-1.289-3.249-.889-8.563.796-11.093 5.079.228 8.159 2.443 11.35 4.557 3.957-1.125 8.118-1.685 13.54-1.387 2.28.126 4.651 1.151 6.369.989 1.685-.158 3.542-2.049 5.178-2.771 2.131-.941 3.934-1.3 6.372-1.388z"/></symbol></svg>