<svg id="Capa_1" xmlns="http://www.w3.org/2000/svg" viewBox="0 0 25.143 25.143"><g fill="#030104"><path d="M18.313 21.852c.188.03.38-.016.534-.129a.712.712 0 0 0 .286-.469l.169-1.123a.699.699 0 0 1 .379-.521l1.017-.508a.71.71 0 0 0 .314-.966l-.524-1.013a.7.7 0 0 1 0-.639l.524-1.012a.715.715 0 0 0-.314-.966l-1.017-.508a.699.699 0 0 1-.379-.521l-.169-1.123a.71.71 0 0 0-.286-.468.703.703 0 0 0-.534-.129l-1.125.188a.697.697 0 0 1-.609-.198l-.799-.812a.716.716 0 0 0-1.016 0l-.799.812a.693.693 0 0 1-.609.198l-1.123-.185a.707.707 0 0 0-.535.129.706.706 0 0 0-.286.468l-.168 1.123a.701.701 0 0 1-.379.521l-1.018.508a.717.717 0 0 0-.314.966l.524 1.012a.693.693 0 0 1 0 .639l-.524 1.013a.72.72 0 0 0 .314.966l1.018.508a.701.701 0 0 1 .379.521l.168 1.123a.713.713 0 0 0 .821.598l1.123-.185a.69.69 0 0 1 .609.197l.799.81a.71.71 0 0 0 1.016 0l.799-.81a.691.691 0 0 1 .609-.197l1.125.182zm-3.042-.82c-2.39 0-4.333-1.943-4.333-4.332s1.944-4.334 4.333-4.334c2.39 0 4.333 1.946 4.333 4.334s-1.942 4.332-4.333 4.332z"/><path d="M15.272 12.991c-2.041 0-3.703 1.66-3.703 3.702s1.663 3.702 3.703 3.702c2.043 0 3.703-1.66 3.703-3.702s-1.66-3.702-3.703-3.702zm6.453 9.672l-2.015-2.016-.102.68a1.2 1.2 0 0 1-.479.787 1.185 1.185 0 0 1-.892.213l-1.126-.184c-.093-.006-.149.02-.19.062l-.192.193 2.632 2.631a.385.385 0 0 0 .385.097.388.388 0 0 0 .264-.297l.237-1.277 1.281-.24a.383.383 0 0 0 .197-.649zm-8.256-.525l-1.16.189a1.199 1.199 0 0 1-1.373-1.003l-.102-.677-2.014 2.016c-.1.1-.137.248-.096.384a.388.388 0 0 0 .295.264l1.28.239.24 1.279a.383.383 0 0 0 .646.201l2.631-2.632-.192-.194a.217.217 0 0 0-.155-.066zM16.42 4.217H6.985a.615.615 0 1 0 0 1.231h9.435a.614.614 0 1 0 0-1.231zm0 3.154H6.985a.614.614 0 1 0 0 1.229h9.435a.615.615 0 1 0 0-1.229z"/><path d="M9.872 20.216l-.465-.232a1.628 1.628 0 0 1-.327-.223H5.108a.494.494 0 0 1-.493-.492V1.804c0-.273.221-.494.493-.494h13.218c.271 0 .493.221.493.494v9.007c.22.052.43.148.614.285.36.257.609.668.676 1.116l.02-10.407A1.804 1.804 0 0 0 18.326 0H5.108c-.995 0-1.805.811-1.805 1.805v17.466c0 .996.811 1.806 1.805 1.806h3.905l.859-.861z"/></g></svg>