<svg id="Layer_1" xmlns="http://www.w3.org/2000/svg" viewBox="0 0 512 512"><path d="M86.492 432.205l-28.49 26.117v45.594H74.17v-38.482l23.248-21.31zm60.644 0l-10.926 11.919 23.248 21.31v38.482h16.169v-45.594zm-6.226-73.266c0 4.671-.981 7.973-2.917 9.821-4.088 3.899-26.873 2.828-29.196 2.828v16.168c1.943 0 19.981.383 22.412.121v17.502c0 7.974-6.488 14.462-14.462 14.462-7.974 0-14.462-6.488-14.462-14.462V389.12H86.116v16.258c0 16.89 13.741 30.631 30.631 30.631s30.63-13.741 30.63-30.631v-23.403a23.271 23.271 0 0 0 1.776-1.518c5.258-5.017 7.925-12.257 7.925-21.518H140.91zm84.631 73.266l-28.491 26.117v45.594h16.168v-38.482l23.248-21.31zm60.643 0l-10.925 11.919 23.248 21.31v38.482h16.168v-45.594zm-6.226-73.266c0 4.671-.981 7.973-2.917 9.821-4.087 3.899-26.873 2.828-29.196 2.828v16.168c1.943 0 19.981.383 22.412.121v17.502c0 7.974-6.488 14.462-14.462 14.462-7.974 0-14.462-6.488-14.462-14.462V389.12h-16.168v16.258c0 16.89 13.741 30.631 30.631 30.631s30.631-13.741 30.631-30.631v-23.403a23.271 23.271 0 0 0 1.776-1.518c5.258-5.017 7.925-12.257 7.925-21.518h-16.17zm84.631 73.266l-28.491 26.117v45.594h16.169v-38.482l23.248-21.31zm60.644 0l-10.926 11.919 23.248 21.31v38.482h16.169v-45.594zm-6.226-73.266c0 4.671-.981 7.973-2.917 9.821-4.088 3.899-26.873 2.828-29.196 2.828v16.168c1.943 0 19.981.383 22.412.121v17.502c0 7.974-6.488 14.462-14.462 14.462s-14.462-6.488-14.462-14.462V389.12h-16.168v16.258c0 16.89 13.741 30.631 30.631 30.631s30.63-13.741 30.63-30.631v-23.403a23.271 23.271 0 0 0 1.776-1.518c5.258-5.017 7.925-12.257 7.925-21.518h-16.169zM248.25 93.238h16.168v16.168H248.25zm0 26.947h16.168v52.817H248.25zM280.497 8.084c0 4.671-.981 7.973-2.917 9.821-4.087 3.9-26.873 2.828-29.196 2.828v16.168c1.943 0 19.981.383 22.412.121v17.502c0 7.974-6.488 14.462-14.462 14.462-7.974 0-14.462-6.488-14.462-14.462V38.265h-16.168v16.258c.001 16.89 13.741 30.631 30.631 30.631s30.63-13.741 30.63-30.631V31.12a23.271 23.271 0 0 0 1.776-1.518c5.258-5.017 7.925-12.257 7.925-21.518h-16.169z"/><path d="M315.214 178.929v-71.462L286.723 81.35l-10.925 11.919 23.248 21.31v64.35h-86.367v-64.35l23.248-21.31-10.925-11.919-28.491 26.117v71.462h-67.368v48.506h22.259l10.111 111.216h16.101l-11.447-127.385h-20.856v-16.168h220.968v16.168h-20.856l-11.447 127.385h16.102l10.11-111.216h22.26v-48.506z"/><path d="M183.242 50.978V10.779H0v123.958h183.242V95.102l24.509-23.19-24.509-20.934zm-16.168 37.163v30.428H16.168V26.947h150.905v31.484l16.503 14.095-16.502 15.615z"/><path d="M39.905 65.286h16.168v16.168H39.905zm88.387 0h16.168v16.168h-16.168zm-44.194 0h16.168v16.168H84.098zm244.66-49.118v40.199L304.25 77.301l24.508 23.19v39.635H512V16.168H328.758zm167.074 107.79H344.926V93.53l-16.503-15.614 16.503-14.095V32.337h150.905v91.621z"/><path d="M368.498 69.818h16.168v16.168h-16.168zm44.193 0h16.168v16.168h-16.168zm44.194 0h16.168v16.168h-16.168z"/></svg>