<svg id="Capa_1" xmlns="http://www.w3.org/2000/svg" width="34.891" height="34.891" viewBox="0 0 34.891 34.891"><path d="M32.43 33.652c0-1.398-1.609-3.285-3.783-3.836.907-.611 1.533-1.816 1.533-2.902a2.773 2.773 0 1 0-5.545 0c0 1.086.627 2.291 1.533 2.902-2.173.551-3.783 2.438-3.783 3.836-.001 1.652 10.045 1.652 10.045 0zM9.028 6.278c1.239 0 2.247-1.442 2.247-2.682a2.248 2.248 0 1 0-4.497 0c0 1.24 1.008 2.682 2.25 2.682z"/><path d="M32.6 12.888V3.371c0-.875-.712-1.586-1.587-1.586h-6.146V.595a.595.595 0 0 0-1.192 0v1.19H17.53c-.874 0-1.586.711-1.586 1.586v4.873l-3.079-1.027c-.193-.068-1.919-.671-3.509-.75l-.213.425h-.004l.599 4.663-.711 1.244-.712-1.244.598-4.663h-.005l-.212-.425c-1.649.083-3.448.729-3.528.757-.033.013-.054.038-.084.052a.836.836 0 0 0-.369.34.735.735 0 0 0-.074.164c-.01.031-.031.054-.039.086L3.18 14.267a.89.89 0 0 0 .675 1.062c.065.012.128.018.194.018.408 0 .775-.28.865-.694l1.314-5.907c.092-.029.195-.06.31-.092v6.071l-.709 8.799c-.027.34.12.645.354.858a2.772 2.772 0 0 0-1.642 2.528c0 1.086.626 2.291 1.533 2.902-2.173.551-3.783 2.438-3.783 3.836 0 1.652 10.046 1.652 10.046 0 0-1.398-1.61-3.285-3.783-3.836.908-.611 1.534-1.816 1.534-2.902a2.77 2.77 0 0 0-2.314-2.729c.095-.145.168-.304.183-.488l.639-7.953c.133.057.278.091.433.091.152 0 .297-.034.429-.091l.64 7.953a1.068 1.068 0 0 0 2.128-.17l-.708-8.798v-6.07c.451.128.756.237.764.241l.012.003.01.003 3.643 1.215v2.771c0 .875.712 1.586 1.586 1.586h2.887l-2.533 9.454a.596.596 0 0 0-.005.262 2.854 2.854 0 0 0-.519-.052 2.774 2.774 0 0 0-2.774 2.774c0 1.086.627 2.291 1.535 2.902-2.174.551-3.784 2.438-3.784 3.836 0 1.652 10.046 1.652 10.046 0 0-1.398-1.61-3.285-3.782-3.836.907-.611 1.533-1.816 1.533-2.902 0-.998-.529-1.864-1.32-2.354a.583.583 0 0 0 .221-.322l2.615-9.763h2.027v6.919a.596.596 0 0 0 1.192 0v-6.919h2.025l2.615 9.763a.594.594 0 1 0 1.15-.31l-2.533-9.454h2.887a1.584 1.584 0 0 0 1.584-1.584zm-15.069.793a.794.794 0 0 1-.794-.793v-2.535c.038.005.076.019.114.019.372 0 .72-.236.844-.607a.89.89 0 0 0-.563-1.125l-.396-.132V3.371c0-.438.355-.793.794-.793h13.482c.438 0 .794.355.794.793v9.517a.793.793 0 0 1-.794.793H17.531z"/></svg>