<svg xmlns="http://www.w3.org/2000/svg" xmlns:xlink="http://www.w3.org/1999/xlink"><symbol id="bank-building" viewBox="0 0 47.001 47.001">
<g>
	<g id="Layer_1_78_">
		<g>
			<path d="M44.845,42.718H2.136C0.956,42.718,0,43.674,0,44.855c0,1.179,0.956,2.135,2.136,2.135h42.708
				c1.18,0,2.136-0.956,2.136-2.135C46.979,43.674,46.023,42.718,44.845,42.718z"/>
			<path d="M4.805,37.165c-1.18,0-2.136,0.956-2.136,2.136s0.956,2.137,2.136,2.137h37.37c1.18,0,2.136-0.957,2.136-2.137
				s-0.956-2.136-2.136-2.136h-0.533V17.945h0.533c0.591,0,1.067-0.478,1.067-1.067s-0.478-1.067-1.067-1.067H4.805
				c-0.59,0-1.067,0.478-1.067,1.067s0.478,1.067,1.067,1.067h0.534v19.219H4.805z M37.37,17.945v19.219h-6.406V17.945H37.37z
				 M26.692,17.945v19.219h-6.406V17.945H26.692z M9.609,17.945h6.406v19.219H9.609V17.945z"/>
			<path d="M2.136,13.891h42.708c0.007,0,0.015,0,0.021,0c1.181,0,2.136-0.956,2.136-2.136c0-0.938-0.604-1.733-1.443-2.021
				l-21.19-9.535c-0.557-0.25-1.194-0.25-1.752,0L1.26,9.808c-0.919,0.414-1.424,1.412-1.212,2.396
				C0.259,13.188,1.129,13.891,2.136,13.891z"/>
		</g>
	</g>
</g>
<g>
</g>
<g>
</g>
<g>
</g>
<g>
</g>
<g>
</g>
<g>
</g>
<g>
</g>
<g>
</g>
<g>
</g>
<g>
</g>
<g>
</g>
<g>
</g>
<g>
</g>
<g>
</g>
<g>
</g>
</symbol><symbol id="connection" viewBox="0 0 480.21 480.21">
<g>
	<g>
		<path d="M372.189,256.191l-51.928-66.104c18.439-18.904,29.574-43.737,31.424-70.08h80.408v8.8
			c-18.613,3.825-31.979,20.198-32,39.2c0.005,22.091,17.917,39.996,40.008,39.992s39.996-17.917,39.992-40.008
			c-0.004-19.005-13.379-35.383-32-39.184v-16.8c0-4.418-3.582-8-8-8h-88.408c-1.564-22.165-9.728-43.355-23.44-60.84l11.16-11.16
			h94.16c4.418,12.497,18.131,19.046,30.627,14.627c12.497-4.418,19.046-18.131,14.627-30.627S460.689-3.039,448.193,1.379
			c-6.835,2.416-12.211,7.793-14.627,14.627h-97.472c-2.122,0-4.156,0.844-5.656,2.344l-12.92,12.92
			c-44.458-42.816-115.208-41.485-158.025,2.973c-18.198,18.896-29.169,43.592-30.991,69.763h-67.2L35.149,45.183
			C46.84,39.03,51.33,24.566,45.178,12.875S24.561-3.305,12.87,2.847C1.18,8.999-3.31,23.463,2.842,35.154
			c3.233,6.144,8.977,10.581,15.739,12.156l30.2,67.952c1.286,2.887,4.152,4.746,7.312,4.744h72.408
			c1.842,26.04,12.762,50.608,30.856,69.424l-67.536,67.536c-43.669-6.543-84.374,23.553-90.917,67.222
			c-6.543,43.669,23.553,84.374,67.222,90.917c1.318,0.198,2.641,0.362,3.967,0.493v40.408c0,4.418,3.582,8,8,8h73.472
			c4.418,12.497,18.131,19.046,30.627,14.627s19.046-18.131,14.627-30.627s-18.131-19.046-30.627-14.627
			c-6.835,2.416-12.211,7.793-14.627,14.627H88.093v-32.408c43.938-4.38,76.007-43.55,71.627-87.489
			c-2.964-29.732-22.26-55.331-50.027-66.367l61.6-61.6c40.116,31.586,96.582,31.813,136.952,0.552l44.384,56.496
			c-61.285,8.549-104.036,65.16-95.487,126.444c8.549,61.285,65.16,104.036,126.444,95.487
			c61.285-8.549,104.036-65.16,95.487-126.444C471.565,298.847,426.504,258.17,372.189,256.191z M464.093,168.007
			c0,13.255-10.745,24-24,24s-24-10.745-24-24s10.745-24,24-24S464.093,154.752,464.093,168.007z M456.093,16.007
			c4.418,0,8,3.582,8,8s-3.582,8-8,8s-8-3.582-8-8S451.675,16.007,456.093,16.007z M24.093,32.007c-4.418,0-8-3.582-8-8s3.582-8,8-8
			s8,3.582,8,8S28.511,32.007,24.093,32.007z M176.093,448.007c4.418,0,8,3.582,8,8s-3.582,8-8,8s-8-3.582-8-8
			S171.675,448.007,176.093,448.007z M112.093,391.351c-19.771,11.546-44.229,11.546-64,0v-15.344c0-17.673,14.327-32,32-32
			s32,14.327,32,32V391.351z M64.093,312.007c0-8.837,7.163-16,16-16s16,7.163,16,16s-7.163,16-16,16S64.093,320.843,64.093,312.007
			z M128.093,293.535c10.342,11.727,16.034,26.835,16,42.472c-0.003,15.546-5.694,30.553-16,42.192v-2.192
			c-0.01-17.49-9.533-33.591-24.856-42.024c12.203-12.784,11.731-33.04-1.053-45.243c-12.784-12.202-33.04-11.731-45.243,1.053
			c-11.803,12.365-11.803,31.824,0,44.189c-15.32,8.435-24.839,24.535-24.848,42.024v2.192
			c-23.379-26.51-20.841-66.953,5.668-90.332C64.271,264.487,104.714,267.025,128.093,293.535z M296.093,189.799
			c-33.397,24.246-78.603,24.246-112,0v-19.392c0-14.58,11.82-26.4,26.4-26.4h17.76l-11.608,29.024
			c-1.189,2.973-0.49,6.37,1.776,8.632l16,16c3.124,3.123,8.188,3.123,11.312,0l16-16c2.266-2.263,2.965-5.659,1.776-8.632
			l-11.6-29.024h17.784c14.58,0,26.4,11.82,26.4,26.4V189.799z M241.238,59.887c-0.3,0.5-0.544,1.03-0.728,1.583
			c-4.048,12.136-25.903,16.736-39.975,18.072c2.146-26.81,14.762-39.536,39.559-39.536c22.704,0,35.2,10.736,38.776,33.136
			l-26.656-16C248.424,54.87,243.51,56.099,241.238,59.887z M251.125,75.159l28.592,17.16
			c-3.208,19.584-27.344,35.688-39.624,35.688c-17.843-3.039-32.686-15.412-38.888-32.416
			C214.901,94.463,239.629,90.311,251.125,75.159z M246.701,174.079l-6.608,6.616l-6.608-6.616l6.608-16.536L246.701,174.079z
			 M274.997,128.375c12.48-9.821,20.159-24.515,21.096-40.368c0-52.896-30.456-64-56-64s-56,11.104-56,64
			c0.93,15.862,8.61,30.566,21.096,40.392c-21.206,2.613-37.127,20.641-37.096,42.008v4.864
			c-35.069-39.764-31.263-100.429,8.502-135.498C216.36,4.704,277.024,8.51,312.093,48.274c32,36.285,32,90.711,0,126.996v-4.864
			C312.136,149.031,296.212,130.988,274.997,128.375z M424.093,445.799c-33.397,24.246-78.603,24.246-112,0v-19.392
			c0-14.58,11.82-26.4,26.4-26.4h17.76l-11.608,29.024c-1.189,2.973-0.49,6.369,1.776,8.632l16,16c3.124,3.123,8.188,3.123,11.312,0
			l16-16c2.266-2.263,2.965-5.659,1.776-8.632l-11.6-29.024h17.784c14.58,0,26.4,11.82,26.4,26.4V445.799z M379.125,331.159l0-0.008
			l28.592,17.16c-3.208,19.592-27.344,35.696-39.624,35.696c-17.843-3.039-32.686-15.412-38.888-32.416
			C342.901,350.463,367.629,346.31,379.125,331.159z M328.533,335.543L328.533,335.543c2.144-26.808,14.76-39.536,39.56-39.536
			c22.704,0,35.2,10.736,38.776,33.136l-26.656-16c-3.789-2.273-8.703-1.044-10.976,2.745c-0.3,0.5-0.544,1.03-0.728,1.583
			C364.461,329.607,342.605,334.207,328.533,335.543z M374.701,430.079l-6.608,6.616l-6.608-6.616l6.608-16.536L374.701,430.079z
			 M440.093,431.294v-4.888c0.043-21.376-15.881-39.418-37.096-42.032c12.48-9.821,20.159-24.515,21.096-40.368
			c0-52.896-30.456-64-56-64s-56,11.104-56,64c0.93,15.862,8.61,30.566,21.096,40.392c-21.206,2.613-37.127,20.641-37.096,42.008
			v4.864c-34.987-39.795-31.089-100.419,8.706-135.406c39.795-34.987,100.419-31.089,135.406,8.706
			c15.416,17.534,23.909,40.088,23.888,63.435C464.088,391.325,455.552,413.836,440.093,431.294z"/>
	</g>
</g>
<g>
</g>
<g>
</g>
<g>
</g>
<g>
</g>
<g>
</g>
<g>
</g>
<g>
</g>
<g>
</g>
<g>
</g>
<g>
</g>
<g>
</g>
<g>
</g>
<g>
</g>
<g>
</g>
<g>
</g>
</symbol><symbol id="facebook-logo-button" viewBox="0 0 486.392 486.392">
<g>
	<g>
		<g>
			<path style="fill:#010002;" d="M243.196,0C108.891,0,0,108.891,0,243.196s108.891,243.196,243.196,243.196
				s243.196-108.891,243.196-243.196C486.392,108.861,377.501,0,243.196,0z M306.062,243.165l-39.854,0.03l-0.03,145.917h-54.689
				V243.196H175.01v-50.281l36.479-0.03l-0.061-29.609c0-41.039,11.126-65.997,59.431-65.997h40.249v50.311h-25.171
				c-18.817,0-19.729,7.022-19.729,20.124l-0.061,25.171h45.234L306.062,243.165z"/>
		</g>
	</g>
	<g>
	</g>
	<g>
	</g>
	<g>
	</g>
	<g>
	</g>
	<g>
	</g>
	<g>
	</g>
	<g>
	</g>
	<g>
	</g>
	<g>
	</g>
	<g>
	</g>
	<g>
	</g>
	<g>
	</g>
	<g>
	</g>
	<g>
	</g>
	<g>
	</g>
</g>
<g>
</g>
<g>
</g>
<g>
</g>
<g>
</g>
<g>
</g>
<g>
</g>
<g>
</g>
<g>
</g>
<g>
</g>
<g>
</g>
<g>
</g>
<g>
</g>
<g>
</g>
<g>
</g>
<g>
</g>
</symbol><symbol id="giftbox" viewBox="0 0 512 512">
<g>
	<g>
		<path d="M478.609,99.726H441.34c4.916-7.78,8.16-16.513,9.085-25.749C453.38,44.46,437.835,18,411.37,6.269
			c-24.326-10.783-51.663-6.375-71.348,11.479l-47.06,42.65c-9.165-10.024-22.34-16.324-36.962-16.324
			c-14.648,0-27.844,6.32-37.011,16.375l-47.12-42.706C152.152-0.111,124.826-4.502,100.511,6.275
			C74.053,18.007,58.505,44.476,61.469,73.992c0.927,9.229,4.169,17.958,9.084,25.734H33.391C14.949,99.726,0,114.676,0,133.117
			v50.087c0,9.22,7.475,16.696,16.696,16.696h478.609c9.22,0,16.696-7.475,16.696-16.696v-50.087
			C512,114.676,497.051,99.726,478.609,99.726z M205.913,94.161v5.565H127.37c-20.752,0-37.084-19.346-31.901-40.952
			c2.283-9.515,9.151-17.626,18.034-21.732c12.198-5.638,25.71-3.828,35.955,5.445l56.469,51.182
			C205.924,93.834,205.913,93.996,205.913,94.161z M417.294,69.544c-1.244,17.353-16.919,30.184-34.316,30.184h-76.891v-5.565
			c0-0.197-0.012-0.392-0.014-0.589c12.792-11.596,40.543-36.748,55.594-50.391c8.554-7.753,20.523-11.372,31.587-8.072
			C409.131,39.847,418.455,53.349,417.294,69.544z"/>
	</g>
</g>
<g>
	<g>
		<path d="M33.391,233.291v244.87c0,18.442,14.949,33.391,33.391,33.391h155.826V233.291H33.391z"/>
	</g>
</g>
<g>
	<g>
		<path d="M289.391,233.291v278.261h155.826c18.442,0,33.391-14.949,33.391-33.391v-244.87H289.391z"/>
	</g>
</g>
<g>
</g>
<g>
</g>
<g>
</g>
<g>
</g>
<g>
</g>
<g>
</g>
<g>
</g>
<g>
</g>
<g>
</g>
<g>
</g>
<g>
</g>
<g>
</g>
<g>
</g>
<g>
</g>
<g>
</g>
</symbol><symbol id="handshake" viewBox="0 0 480 480">
<g>
	<g>
		<path d="M432,152c-13.255,0-24,10.745-24,24s10.745,24,24,24s24-10.745,24-24S445.255,152,432,152z M432,184c-4.418,0-8-3.582-8-8
			s3.582-8,8-8s8,3.582,8,8S436.418,184,432,184z"/>
	</g>
</g>
<g>
	<g>
		<path d="M472,0h-32c-2.126-0.012-4.17,0.823-5.68,2.32l-120,120c-3.137,3.111-3.158,8.177-0.046,11.314
			c0.015,0.016,0.031,0.031,0.046,0.046l18.4,18.32L308,176.72L240,192l-68-15.12L147.28,152l18.4-18.32
			c3.137-3.111,3.158-8.177,0.046-11.314c-0.015-0.016-0.031-0.031-0.046-0.046l-120-120C44.17,0.823,42.127-0.012,40,0H8
			C3.582,0,0,3.582,0,8v272c0.016,3.23,1.973,6.133,4.96,7.36C5.91,287.808,6.951,288.027,8,288c2.126,0.012,4.17-0.823,5.68-2.32
			L32,267.28l26.32,26.4l60.32,60.24c-8.214,15.355-5.314,34.288,7.12,46.48l67.84,67.92c7.516,7.497,17.704,11.699,28.32,11.68
			c9.624-0.033,18.902-3.59,26.08-10c5.196,4.183,11.65,6.494,18.32,6.56c6.254,0.043,12.33-2.077,17.2-6
			c6.142-5.023,9.887-12.398,10.32-20.32v-1.68c7.469-0.008,14.652-2.87,20.08-8c5.183-5.264,8.061-12.373,8-19.76
			c7.511,0.221,14.779-2.674,20.08-8c5.247-5.353,8.128-12.586,8-20.08h2c7.912-0.403,15.289-4.12,20.32-10.24
			c8.564-11.128,7.855-26.811-1.68-37.12l50.88-50.88l26.48-27.2l18.32,18.4c1.51,1.497,3.554,2.332,5.68,2.32
			c1.049,0.027,2.091-0.192,3.04-0.64c2.987-1.227,4.944-4.13,4.96-7.36V8C480,3.582,476.418,0,472,0z M16,260.72V16h20.72l112,112
			L16,260.72z M43.28,256L136,163.28L156.72,184L64,276.72L43.28,256z M75.28,288l95.28-95.2L224,204.64l-85.68,85.68
			c-3.137,3.111-3.158,8.177-0.046,11.314c0.015,0.016,0.031,0.031,0.046,0.046c6.959,6.921,15.582,11.935,25.04,14.56
			c-7.038,0.59-13.641,3.65-18.64,8.64l-16,16L75.28,288z M130,372.08c0.006-6.363,2.538-12.463,7.04-16.96L156.08,336
			c2.555-2.594,6.039-4.062,9.68-4.08c2.576-0.024,5.085,0.821,7.12,2.4c2.635,2.162,4.257,5.319,4.48,8.72
			c0.119,3.345-1.156,6.59-3.52,8.96c-0.34,0.376-0.611,0.81-0.8,1.28l-36.48,34.8C132.461,383.747,130.123,378.043,130,372.08z
			 M147.76,400l38.96-37.28c5.217-3.942,12.642-2.907,16.584,2.31c3.229,4.274,3.186,10.183-0.104,14.41v-0.16l-38.8,37.12
			L147.76,400z M192,444.48l-16-16.8l36.8-35.12l0.96-0.64c4.703-4.636,12.257-4.636,16.96,0c3.608,3.938,4.132,9.804,1.28,14.32
			L192,444.48z M238.88,457.2c-9.571,8.954-24.477,8.849-33.92-0.24l-1.2-0.96l35.12-33.76c1.046-0.385,1.999-0.985,2.8-1.76
			c2.373-2.46,5.71-3.747,9.12-3.52c3.402,0.154,6.575,1.755,8.72,4.4c3.784,5.243,3.063,12.485-1.68,16.88L238.88,457.2z
			 M273.872,458.102c-0.116,0.102-0.233,0.201-0.352,0.298v-0.24c-4.037,2.994-9.493,3.216-13.76,0.56l9.44-9.44
			c2.347-2.332,4.293-5.035,5.76-8C279.305,446.226,278.818,453.757,273.872,458.102z M360,371.52c-2.163,2.665-5.37,4.269-8.8,4.4
			c-3.377,0.269-6.696-0.994-9.04-3.44c-0.408-0.32-0.835-0.614-1.28-0.88l-39.28-41.12l-11.52,11.04l41.84,43.84
			c4.045,5.138,3.16,12.582-1.977,16.627c-4.582,3.608-11.109,3.342-15.383-0.627l-44.96-46.72l-11.52,11.04L302,411.44
			c0,0,0,0.56,0.56,0.8c2.251,2.248,3.517,5.298,3.52,8.48c-0.02,3.178-1.284,6.222-3.52,8.48c-4.77,4.471-12.19,4.471-16.96,0
			c-2.108-2.067-5.183-2.805-8-1.92c-0.143-5.829-2.195-11.449-5.84-16c-5.023-6.142-12.398-9.887-20.32-10.32h-1.68
			c0.138-7.496-2.745-14.732-8-20.08c-5.401-5.173-12.602-8.042-20.08-8c0.07-7.389-2.81-14.501-8-19.76
			c-5.415-5.151-12.607-8.016-20.08-8c0.038-0.586,0.038-1.174,0-1.76c-0.403-7.912-4.12-15.289-10.24-20.32
			c-2.089-1.616-4.408-2.91-6.88-3.84c14.056,0.522,27.7-4.808,37.68-14.72l26.64-28.32c15.484,12.569,35.394,18.34,55.2,16
			L339.52,336l18.96,18.96C362.96,359.37,363.602,366.369,360,371.52z M360,333.04l-46.32-46.96l2.32-0.88l1.28-0.8l8-6l-9.6-12.8
			l-7.36,5.6c-21.387,8.999-46.109,3.877-62.16-12.88c-3.066-3.181-8.131-3.274-11.312-0.208c-0.071,0.068-0.14,0.138-0.208,0.208
			l-32,33.84c-6.946,7.144-16.705,10.836-26.64,10.08c-7.321-0.348-14.405-2.7-20.48-6.8l88-88l65.44-14.48L404.72,288L360,333.04z
			 M416,277.04L323.28,184L344,163.28L436.72,256L416,277.04z M464,261.04l-10.32-10.4l-104-104L331.28,128l112-112H464V261.04z"/>
	</g>
</g>
<g>
	<g>
		<path d="M48,152c-13.255,0-24,10.745-24,24s10.745,24,24,24s24-10.745,24-24S61.255,152,48,152z M48,184c-4.418,0-8-3.582-8-8
			s3.582-8,8-8s8,3.582,8,8S52.418,184,48,184z"/>
	</g>
</g>
<g>
	<g>
		<path d="M72,368H56c0,30.928,25.072,56,56,56v-16C89.909,408,72,390.091,72,368z"/>
	</g>
</g>
<g>
	<g>
		<path d="M32,368H16c0,53.019,42.981,96,96,96v-16C67.817,448,32,412.183,32,368z"/>
	</g>
</g>
<g>
	<g>
		<path d="M400,368c0,22.091-17.909,40-40,40v16c30.928,0,56-25.072,56-56H400z"/>
	</g>
</g>
<g>
	<g>
		<path d="M440,368c0,44.183-35.817,80-80,80v16c53.019,0,96-42.981,96-96H440z"/>
	</g>
</g>
<g>
</g>
<g>
</g>
<g>
</g>
<g>
</g>
<g>
</g>
<g>
</g>
<g>
</g>
<g>
</g>
<g>
</g>
<g>
</g>
<g>
</g>
<g>
</g>
<g>
</g>
<g>
</g>
<g>
</g>
</symbol><symbol id="icon" viewBox="0 0 25.143 25.143">
<g>
	<g>
		<path style="fill:#030104;" d="M18.313,21.852c0.188,0.03,0.38-0.016,0.534-0.129c0.152-0.11,0.258-0.28,0.286-0.469l0.169-1.123
			c0.034-0.226,0.175-0.418,0.379-0.521l1.017-0.508c0.172-0.087,0.301-0.236,0.359-0.417c0.06-0.183,0.041-0.379-0.045-0.549
			l-0.524-1.013c-0.103-0.198-0.103-0.439,0-0.639l0.524-1.012c0.086-0.17,0.104-0.366,0.045-0.549
			c-0.059-0.182-0.188-0.33-0.359-0.417l-1.017-0.508c-0.204-0.103-0.345-0.295-0.379-0.521l-0.169-1.123
			c-0.028-0.189-0.134-0.358-0.286-0.468c-0.154-0.114-0.346-0.16-0.534-0.129l-1.125,0.188c-0.223,0.037-0.449-0.037-0.609-0.198
			l-0.799-0.812c-0.135-0.135-0.316-0.211-0.508-0.211c-0.189,0-0.374,0.077-0.508,0.211l-0.799,0.812
			c-0.159,0.162-0.386,0.235-0.609,0.198l-1.123-0.185c-0.188-0.031-0.38,0.015-0.535,0.129c-0.153,0.11-0.258,0.279-0.286,0.468
			l-0.168,1.123c-0.035,0.226-0.175,0.418-0.379,0.521l-1.018,0.508c-0.169,0.087-0.3,0.235-0.358,0.417
			c-0.059,0.183-0.042,0.379,0.044,0.549l0.524,1.012c0.104,0.199,0.104,0.44,0,0.639l-0.524,1.013
			c-0.086,0.17-0.103,0.366-0.044,0.549c0.059,0.181,0.188,0.33,0.358,0.417l1.018,0.508c0.204,0.103,0.344,0.295,0.379,0.521
			l0.168,1.123c0.028,0.188,0.133,0.358,0.286,0.469c0.154,0.113,0.346,0.159,0.535,0.129l1.123-0.185
			c0.223-0.039,0.45,0.036,0.609,0.197l0.799,0.81c0.135,0.138,0.318,0.214,0.508,0.214c0.191,0,0.374-0.076,0.508-0.214l0.799-0.81
			c0.16-0.161,0.387-0.236,0.609-0.197L18.313,21.852z M15.271,21.032c-2.39,0-4.333-1.943-4.333-4.332s1.944-4.334,4.333-4.334
			c2.39,0,4.333,1.946,4.333,4.334S17.662,21.032,15.271,21.032z"/>
		<path style="fill:#030104;" d="M15.272,12.991c-2.041,0-3.703,1.66-3.703,3.702s1.663,3.702,3.703,3.702
			c2.043,0,3.703-1.66,3.703-3.702S17.315,12.991,15.272,12.991z"/>
		<path style="fill:#030104;" d="M21.725,22.663l-2.015-2.016l-0.102,0.68c-0.048,0.313-0.222,0.602-0.479,0.787
			c-0.255,0.186-0.574,0.265-0.892,0.213l-1.126-0.184c-0.093-0.006-0.149,0.02-0.19,0.062l-0.192,0.193l2.632,2.631
			c0.102,0.102,0.249,0.138,0.385,0.097c0.136-0.043,0.236-0.156,0.264-0.297l0.237-1.277l1.281-0.24
			c0.14-0.026,0.253-0.127,0.294-0.264C21.864,22.911,21.826,22.762,21.725,22.663z"/>
		<path style="fill:#030104;" d="M13.469,22.138l-1.16,0.189c-0.325,0.05-0.64-0.028-0.896-0.216
			c-0.255-0.184-0.429-0.472-0.477-0.787l-0.102-0.677L8.82,22.663c-0.1,0.1-0.137,0.248-0.096,0.384
			c0.043,0.137,0.157,0.236,0.295,0.264l1.28,0.239l0.24,1.279c0.026,0.141,0.127,0.254,0.263,0.297
			c0.135,0.041,0.283,0.005,0.383-0.096l2.631-2.632l-0.192-0.194C13.582,22.161,13.526,22.138,13.469,22.138z"/>
		<path style="fill:#030104;" d="M16.42,4.217H6.985c-0.34,0-0.615,0.275-0.615,0.615C6.369,5.174,6.644,5.448,6.985,5.448h9.435
			c0.339,0,0.615-0.274,0.615-0.614C17.035,4.494,16.758,4.217,16.42,4.217z"/>
		<path style="fill:#030104;" d="M16.42,7.371H6.985c-0.34,0-0.615,0.275-0.615,0.613C6.369,8.324,6.644,8.6,6.985,8.6h9.435
			c0.339,0,0.615-0.274,0.615-0.615C17.035,7.646,16.758,7.371,16.42,7.371z"/>
		<path style="fill:#030104;" d="M9.872,20.216l-0.465-0.232c-0.119-0.06-0.227-0.137-0.327-0.223H5.108
			c-0.272,0-0.493-0.222-0.493-0.492V1.804c0-0.273,0.221-0.494,0.493-0.494h13.218c0.271,0,0.493,0.221,0.493,0.494v9.007
			c0.22,0.052,0.43,0.148,0.614,0.285c0.36,0.257,0.609,0.668,0.676,1.116l0.02-10.407C20.131,0.81,19.321,0,18.326,0H5.108
			C4.113,0,3.303,0.811,3.303,1.805v17.466c0,0.996,0.811,1.806,1.805,1.806h3.905L9.872,20.216z"/>
	</g>
</g>
<g>
</g>
<g>
</g>
<g>
</g>
<g>
</g>
<g>
</g>
<g>
</g>
<g>
</g>
<g>
</g>
<g>
</g>
<g>
</g>
<g>
</g>
<g>
</g>
<g>
</g>
<g>
</g>
<g>
</g>
</symbol><symbol id="instagram" viewBox="0 0 504.4 504.4">
<g>
	<g>
		<path d="M296.8,219.8c-10-14-26.4-23.2-44.8-23.2c-18.4,0-34.8,9.2-44.8,23.2c-6.4,9.2-10.4,20.4-10.4,32.4
			c0,30.4,24.8,55.2,55.2,55.2c30.4,0,55.2-24.8,55.2-55.2C307.2,240.2,303.2,229,296.8,219.8z"/>
	</g>
</g>
<g>
	<g>
		<path d="M331.6,220.2c4,8,6.4,20.8,6.4,32c0,47.2-38.4,86-86,86c-47.6,0-86-38.4-86-86c0-11.6,2.4-24,6.4-32H124v128.4
			c0,16.8,14.8,31.6,31.6,31.6h192.8c16.8,0,31.6-14.8,31.6-31.6V220.2H331.6z"/>
	</g>
</g>
<g>
	<g>
		<polygon points="365.6,131.4 319.2,131.4 319.2,184.6 372,184.6 372,138.2 372,131 		"/>
	</g>
</g>
<g>
	<g>
		<path d="M377.6,0.2H126.4C56.8,0.2,0,57,0,126.6v251.6c0,69.2,56.8,126,126.4,126H378c69.6,0,126.4-56.8,126.4-126.4V126.6
			C504,57,447.2,0.2,377.6,0.2z M408,219.8L408,219.8l0,128.8c0,33.6-26,59.6-59.6,59.6H155.6c-33.6,0-59.6-26-59.6-59.6V219.8v-64
			c0-33.6,26-59.6,59.6-59.6h192.8c33.6,0,59.6,26,59.6,59.6V219.8z"/>
	</g>
</g>
<g>
</g>
<g>
</g>
<g>
</g>
<g>
</g>
<g>
</g>
<g>
</g>
<g>
</g>
<g>
</g>
<g>
</g>
<g>
</g>
<g>
</g>
<g>
</g>
<g>
</g>
<g>
</g>
<g>
</g>
</symbol><symbol id="seminar" viewBox="0 0 512 512">
<g>
	<g>
		<polygon points="86.492,432.205 58.002,458.322 58.002,503.916 74.17,503.916 74.17,465.434 97.418,444.124 		"/>
	</g>
</g>
<g>
	<g>
		<polygon points="147.136,432.205 136.21,444.124 159.458,465.434 159.458,503.916 175.627,503.916 175.627,458.322 		"/>
	</g>
</g>
<g>
	<g>
		<path d="M140.91,358.939c0,4.671-0.981,7.973-2.917,9.821c-4.088,3.899-26.873,2.828-29.196,2.828v16.168
			c1.943,0,19.981,0.383,22.412,0.121v17.502c0,7.974-6.488,14.462-14.462,14.462c-7.974,0-14.462-6.488-14.462-14.462V389.12
			H86.116v16.258c0,16.89,13.741,30.631,30.631,30.631s30.63-13.741,30.63-30.631v-23.403c0.607-0.474,1.204-0.971,1.776-1.518
			c5.258-5.017,7.925-12.257,7.925-21.518H140.91z"/>
	</g>
</g>
<g>
	<g>
		<polygon points="225.541,432.205 197.05,458.322 197.05,503.916 213.218,503.916 213.218,465.434 236.466,444.124 		"/>
	</g>
</g>
<g>
	<g>
		<polygon points="286.184,432.205 275.259,444.124 298.507,465.434 298.507,503.916 314.675,503.916 314.675,458.322 		"/>
	</g>
</g>
<g>
	<g>
		<path d="M279.958,358.939c0,4.671-0.981,7.973-2.917,9.821c-4.087,3.899-26.873,2.828-29.196,2.828v16.168
			c1.943,0,19.981,0.383,22.412,0.121v17.502c0,7.974-6.488,14.462-14.462,14.462c-7.974,0-14.462-6.488-14.462-14.462V389.12
			h-16.168v16.258c0,16.89,13.741,30.631,30.631,30.631s30.631-13.741,30.631-30.631v-23.403c0.607-0.474,1.204-0.971,1.776-1.518
			c5.258-5.017,7.925-12.257,7.925-21.518H279.958z"/>
	</g>
</g>
<g>
	<g>
		<polygon points="364.589,432.205 336.098,458.322 336.098,503.916 352.267,503.916 352.267,465.434 375.515,444.124 		"/>
	</g>
</g>
<g>
	<g>
		<polygon points="425.233,432.205 414.307,444.124 437.555,465.434 437.555,503.916 453.724,503.916 453.724,458.322 		"/>
	</g>
</g>
<g>
	<g>
		<path d="M419.007,358.939c0,4.671-0.981,7.973-2.917,9.821c-4.088,3.899-26.873,2.828-29.196,2.828v16.168
			c1.943,0,19.981,0.383,22.412,0.121v17.502c0,7.974-6.488,14.462-14.462,14.462s-14.462-6.488-14.462-14.462V389.12h-16.168
			v16.258c0,16.89,13.741,30.631,30.631,30.631s30.63-13.741,30.63-30.631v-23.403c0.607-0.474,1.204-0.971,1.776-1.518
			c5.258-5.017,7.925-12.257,7.925-21.518H419.007z"/>
	</g>
</g>
<g>
	<g>
		<rect x="248.25" y="93.238" width="16.168" height="16.168"/>
	</g>
</g>
<g>
	<g>
		<rect x="248.25" y="120.185" width="16.168" height="52.817"/>
	</g>
</g>
<g>
	<g>
		<path d="M280.497,8.084c0,4.671-0.981,7.973-2.917,9.821c-4.087,3.9-26.873,2.828-29.196,2.828v16.168
			c1.943,0,19.981,0.383,22.412,0.121v17.502c0,7.974-6.488,14.462-14.462,14.462c-7.974,0-14.462-6.488-14.462-14.462V38.265
			h-16.168v16.258c0.001,16.89,13.741,30.631,30.631,30.631s30.63-13.741,30.63-30.631V31.12c0.607-0.474,1.204-0.971,1.776-1.518
			c5.258-5.017,7.925-12.257,7.925-21.518H280.497z"/>
	</g>
</g>
<g>
	<g>
		<polygon points="315.214,178.929 315.214,107.467 286.723,81.35 275.798,93.269 299.046,114.579 299.046,178.929 212.679,178.929 
			212.679,114.579 235.927,93.269 225.002,81.35 196.511,107.467 196.511,178.929 129.143,178.929 129.143,227.435 151.402,227.435 
			161.513,338.651 177.614,338.651 166.167,211.266 145.311,211.266 145.311,195.098 366.279,195.098 366.279,211.266 
			345.423,211.266 333.976,338.651 350.078,338.651 360.188,227.435 382.448,227.435 382.448,178.929 		"/>
	</g>
</g>
<g>
	<g>
		<path d="M183.242,50.978V10.779H0v123.958h183.242V95.102l24.509-23.19L183.242,50.978z M167.074,88.141v30.428H16.168V26.947
			h150.905v31.484l16.503,14.095L167.074,88.141z"/>
	</g>
</g>
<g>
	<g>
		<g>
			<rect x="39.905" y="65.286" width="16.168" height="16.168"/>
			<rect x="128.292" y="65.286" width="16.168" height="16.168"/>
			<rect x="84.098" y="65.286" width="16.168" height="16.168"/>
		</g>
	</g>
</g>
<g>
	<g>
		<path d="M328.758,16.168v40.199L304.25,77.301l24.508,23.19v39.635H512V16.168H328.758z M495.832,123.958H344.926V93.53
			l-16.503-15.614l16.503-14.095V32.337h150.905V123.958z"/>
	</g>
</g>
<g>
	<g>
		<g>
			<rect x="368.498" y="69.818" width="16.168" height="16.168"/>
			<rect x="412.691" y="69.818" width="16.168" height="16.168"/>
			<rect x="456.885" y="69.818" width="16.168" height="16.168"/>
		</g>
	</g>
</g>
<g>
</g>
<g>
</g>
<g>
</g>
<g>
</g>
<g>
</g>
<g>
</g>
<g>
</g>
<g>
</g>
<g>
</g>
<g>
</g>
<g>
</g>
<g>
</g>
<g>
</g>
<g>
</g>
<g>
</g>
</symbol><symbol id="seo-training" viewBox="0 0 34.891 34.891">
<g>
	<g>
		<path d="M32.43,33.652c0-1.398-1.609-3.285-3.783-3.836c0.907-0.611,1.533-1.816,1.533-2.902c0-1.532-1.242-2.774-2.771-2.774
			c-1.534,0-2.774,1.242-2.774,2.774c0,1.086,0.627,2.291,1.533,2.902c-2.173,0.551-3.783,2.438-3.783,3.836
			C22.384,35.304,32.43,35.304,32.43,33.652z"/>
		<path d="M9.028,6.278c1.239,0,2.247-1.442,2.247-2.682c0-1.244-1.008-2.249-2.247-2.249c-1.242,0-2.25,1.005-2.25,2.249
			C6.778,4.836,7.786,6.278,9.028,6.278z"/>
		<path d="M32.6,12.888V3.371c0-0.875-0.712-1.586-1.587-1.586h-6.146v-1.19C24.867,0.266,24.6,0,24.271,0s-0.596,0.267-0.596,0.595
			v1.19H17.53c-0.874,0-1.586,0.711-1.586,1.586v4.873l-3.079-1.027c-0.193-0.068-1.919-0.671-3.509-0.75L9.143,6.892H9.139
			l0.599,4.663l-0.711,1.244l-0.712-1.244l0.598-4.663H8.908L8.696,6.467C7.047,6.55,5.248,7.196,5.168,7.224
			C5.135,7.237,5.114,7.262,5.084,7.276C5.03,7.303,4.982,7.33,4.935,7.367C4.887,7.401,4.85,7.439,4.812,7.481
			C4.775,7.525,4.743,7.567,4.715,7.616C4.683,7.669,4.66,7.72,4.641,7.78C4.631,7.811,4.61,7.834,4.602,7.866L3.18,14.267
			c-0.106,0.479,0.195,0.955,0.675,1.062c0.065,0.012,0.128,0.018,0.194,0.018c0.408,0,0.775-0.28,0.865-0.694l1.314-5.907
			c0.092-0.029,0.195-0.06,0.31-0.092v6.071l-0.709,8.799c-0.027,0.34,0.12,0.645,0.354,0.858c-0.966,0.435-1.642,1.399-1.642,2.528
			c0,1.086,0.626,2.291,1.533,2.902c-2.173,0.551-3.783,2.438-3.783,3.836c0,1.652,10.046,1.652,10.046,0
			c0-1.398-1.61-3.285-3.783-3.836c0.908-0.611,1.534-1.816,1.534-2.902c0-1.375-1.001-2.508-2.314-2.729
			c0.095-0.145,0.168-0.304,0.183-0.488l0.639-7.953c0.133,0.057,0.278,0.091,0.433,0.091c0.152,0,0.297-0.034,0.429-0.091
			l0.64,7.953c0.047,0.56,0.513,0.981,1.064,0.981c0.027,0,0.057-0.001,0.085-0.003c0.587-0.047,1.026-0.561,0.979-1.148
			l-0.708-8.798V8.655c0.451,0.128,0.756,0.237,0.764,0.241c0.006,0.002,0.009,0.002,0.012,0.003
			c0.005,0.001,0.007,0.002,0.01,0.003l3.643,1.215v2.771c0,0.875,0.712,1.586,1.586,1.586h2.887l-2.533,9.454
			c-0.023,0.09-0.021,0.178-0.005,0.262c-0.168-0.031-0.341-0.052-0.519-0.052c-1.532,0-2.774,1.242-2.774,2.774
			c0,1.086,0.627,2.291,1.535,2.902c-2.174,0.551-3.784,2.438-3.784,3.836c0,1.652,10.046,1.652,10.046,0
			c0-1.398-1.61-3.285-3.782-3.836c0.907-0.611,1.533-1.816,1.533-2.902c0-0.998-0.529-1.864-1.32-2.354
			c0.104-0.076,0.186-0.188,0.221-0.322l2.615-9.763h2.027v6.919c0,0.327,0.268,0.594,0.596,0.594s0.596-0.267,0.596-0.594v-6.919
			h2.025l2.615,9.763c0.071,0.266,0.312,0.44,0.575,0.44c0.051,0,0.103-0.007,0.153-0.021c0.316-0.086,0.506-0.412,0.422-0.729
			l-2.533-9.454h2.887C31.888,14.474,32.6,13.763,32.6,12.888z M17.531,13.681c-0.438,0-0.794-0.356-0.794-0.793v-2.535
			c0.038,0.005,0.076,0.019,0.114,0.019c0.372,0,0.72-0.236,0.844-0.607c0.154-0.467-0.097-0.97-0.563-1.125l-0.396-0.132V3.371
			c0-0.438,0.355-0.793,0.794-0.793h13.482c0.438,0,0.794,0.355,0.794,0.793v9.517c0,0.437-0.354,0.793-0.794,0.793H17.531z"/>
	</g>
</g>
<g>
</g>
<g>
</g>
<g>
</g>
<g>
</g>
<g>
</g>
<g>
</g>
<g>
</g>
<g>
</g>
<g>
</g>
<g>
</g>
<g>
</g>
<g>
</g>
<g>
</g>
<g>
</g>
<g>
</g>
</symbol><symbol id="viber" viewBox="0 0 455.731 455.731">
<g>
	<path d="M296.076,105.381c-45.26-8.61-91.16-8.61-136.43,0c-19.8,4.41-44.71,28.28-49.58,47.48c-8.1,37.15-8.1,74.81,0,111.96
		c4.87,19.2,29.78,43.07,49.58,47.48c0.005,0.001,0.01,0.002,0.015,0.003c0.882,0.173,1.525,0.937,1.525,1.836v54.422
		c0,2.72,3.32,4.06,5.21,2.09l25.85-26.53c0,0,20.599-21.146,24.303-24.948c0.362-0.372,0.862-0.573,1.38-0.559
		c26.099,0.723,52.226-1.385,78.147-6.313c19.8-4.41,44.72-28.28,49.58-47.48c8.11-37.15,8.11-74.81,0-111.96
		C340.795,133.661,315.886,109.791,296.076,105.381z M296.766,267.592c-3.96,8.408-9.722,15.403-18.034,19.868
		c-2.345,1.26-5.148,1.667-7.795,2.482c-3.044-0.924-5.945-1.545-8.639-2.663c-27.916-11.582-53.608-26.524-73.959-49.429
		c-11.573-13.025-20.632-27.73-28.288-43.292c-3.631-7.38-6.691-15.049-9.81-22.668c-2.845-6.948,1.345-14.126,5.756-19.361
		c4.139-4.913,9.465-8.673,15.233-11.444c4.502-2.163,8.943-0.916,12.231,2.9c7.108,8.25,13.637,16.922,18.924,26.485
		c3.251,5.882,2.359,13.072-3.533,17.075c-1.432,0.973-2.737,2.115-4.071,3.214c-1.17,0.963-2.271,1.936-3.073,3.24
		c-1.466,2.385-1.536,5.2-0.592,7.794c7.266,19.968,19.513,35.495,39.611,43.858c3.217,1.338,6.446,2.896,10.151,2.464
		c6.205-0.725,8.214-7.531,12.562-11.087c4.25-3.475,9.681-3.521,14.259-0.624c4.579,2.898,9.018,6.009,13.43,9.153
		c4.331,3.086,8.643,6.105,12.638,9.623C297.606,258.562,298.929,263,296.766,267.592z M260.722,202.523
		c-1.733,0.031-1.052-0.003-0.393-0.022c-2.793-0.098-4.312-1.742-4.612-4.415c-0.219-1.953-0.392-3.932-0.858-5.832
		c-0.918-3.742-2.907-7.21-6.054-9.503c-1.486-1.083-3.17-1.873-4.934-2.381c-2.241-0.647-4.568-0.469-6.804-1.017
		c-2.428-0.594-3.771-2.561-3.39-4.839c0.347-2.073,2.364-3.691,4.629-3.527c14.157,1.022,24.275,8.341,25.719,25.008
		c0.102,1.176,0.222,2.418-0.039,3.543c-0.424,1.829-1.731,2.781-3.052,2.954C261.042,202.494,261.021,202.503,260.722,202.523z
		 M251.919,164.404c-4.344-2.127-9.042-3.449-13.804-4.237c-2.081-0.344-4.184-0.553-6.275-0.844
		c-2.534-0.352-3.886-1.967-3.767-4.464c0.112-2.34,1.822-4.023,4.372-3.879c8.38,0.476,16.474,2.287,23.924,6.232
		c15.15,8.023,23.804,20.687,26.33,37.597c0.115,0.766,0.298,1.525,0.356,2.294c0.144,1.898,0.233,3.799,0.379,6.302
		c-0.06,0.456-0.092,1.528-0.358,2.538c-0.969,3.666-6.527,4.125-7.807,0.425c-0.379-1.098-0.436-2.347-0.438-3.529
		c-0.013-7.734-1.694-15.46-5.594-22.189C265.228,173.736,259.102,167.922,251.919,164.404z M298.731,216.665
		c-2.927,0.035-4.244-2.414-4.434-5.039c-0.376-5.196-0.636-10.415-1.353-15.568c-3.78-27.201-25.47-49.705-52.544-54.534
		c-4.074-0.727-8.245-0.918-12.371-1.351c-2.609-0.274-6.026-0.432-6.604-3.675c-0.485-2.719,1.81-4.884,4.399-5.023
		c0.704-0.038,1.412-0.006,2.119-0.003c35.065,0.983,2.14,0.076,0.094,0.005c36.472,1.063,66.417,25.283,72.839,61.351
		c1.095,6.151,1.485,12.44,1.972,18.683C303.052,214.136,301.565,216.631,298.731,216.665z"/>
	<path d="M0,0v455.731h455.731V0H0z M371.996,270.781l-0.09,0.36c-7.28,29.43-40.1,61.01-70.24,67.58l-0.34,0.07
		c-24.37,4.65-48.92,6.97-73.46,6.97c-7.223,0-14.446-0.225-21.665-0.629l-33.285,34.599c-8.24,8.58-22.73,2.74-22.73-9.15v-32.852
		c-29.015-8.286-59.391-38.414-66.37-66.589l-0.08-0.36c-9-41.1-9-82.78,0-123.88l0.08-0.36c7.29-29.43,40.11-61.01,70.24-67.58
		l0.35-0.07c48.74-9.3,98.17-9.3,146.92,0l0.34,0.07c30.14,6.57,62.96,38.15,70.24,67.58l0.09,0.36
		C380.996,188.001,380.996,229.681,371.996,270.781z"/>
</g>
<g>
</g>
<g>
</g>
<g>
</g>
<g>
</g>
<g>
</g>
<g>
</g>
<g>
</g>
<g>
</g>
<g>
</g>
<g>
</g>
<g>
</g>
<g>
</g>
<g>
</g>
<g>
</g>
<g>
</g>
</symbol><symbol id="worker" viewBox="0 0 511.999 511.999">
<g>
	<g>
		<path d="M440.482,50.916c-8.099-4.226-18.091-1.088-22.321,7.013l-41.925,80.336l-46.147,36.662c-6.335,0-46.901,0-54.683,0
			l-57.033-18.756l-33.145-53.595l5.854-5.694c3.554-3.457,3.634-9.143,0.176-12.697l-13.735-14.12l10.294-10.014
			c4.024-3.914,4.113-10.35,0.198-14.374l-41.438-42.6c-3.914-4.024-10.35-4.113-14.374-0.198L65.703,67.566
			c-4.024,3.914-4.113,10.35-0.198,14.374l41.438,42.599c3.914,4.024,10.35,4.113,14.374,0.198l10.294-10.013l13.737,14.121
			c3.449,3.547,9.136,3.64,12.696,0.176l2.896-2.817l32.466,52.499c2.049,3.313,5.201,5.797,8.901,7.014l58.436,19.218
			l0.008,287.213c0,10.964,8.888,19.853,19.852,19.853c10.964,0,19.852-8.888,19.852-19.853V333.466l8.565-2.239l24.462,64.136
			l-17.398,78.459c-2.373,10.704,4.38,21.306,15.084,23.679c10.69,2.373,21.303-4.371,23.679-15.083l18.771-84.647
			c0.892-4.025,0.509-8.227-1.096-12.026l-24.153-57.154V202.66l51.197-40.674c1.812-1.441,3.304-3.245,4.375-5.299l43.551-83.45
			C451.722,65.137,448.581,55.143,440.482,50.916z M171.921,90.467c-4.083-0.926-8.515-0.318-12.357,2.058
			c-6.031,3.73-8.81,10.704-7.514,17.272l-0.092,0.088l-7.475-7.683l20.167-19.617l7.475,7.684L171.921,90.467z"/>
	</g>
</g>
<g>
	<g>
		<circle cx="304.734" cy="129.707" r="34.286"/>
	</g>
</g>
<g>
</g>
<g>
</g>
<g>
</g>
<g>
</g>
<g>
</g>
<g>
</g>
<g>
</g>
<g>
</g>
<g>
</g>
<g>
</g>
<g>
</g>
<g>
</g>
<g>
</g>
<g>
</g>
<g>
</g>
</symbol></svg>