<svg id="Layer_1" xmlns="http://www.w3.org/2000/svg" viewBox="0 0 511.999 511.999"><path d="M440.482 50.916c-8.099-4.226-18.091-1.088-22.321 7.013l-41.925 80.336-46.147 36.662h-54.683l-57.033-18.756-33.145-53.595 5.854-5.694c3.554-3.457 3.634-9.143.176-12.697l-13.735-14.12 10.294-10.014c4.024-3.914 4.113-10.35.198-14.374l-41.438-42.6c-3.914-4.024-10.35-4.113-14.374-.198l-66.5 64.687c-4.024 3.914-4.113 10.35-.198 14.374l41.438 42.599c3.914 4.024 10.35 4.113 14.374.198l10.294-10.013 13.737 14.121c3.449 3.547 9.136 3.64 12.696.176l2.896-2.817 32.466 52.499a16.544 16.544 0 0 0 8.901 7.014l58.436 19.218.008 287.213c0 10.964 8.888 19.853 19.852 19.853s19.852-8.888 19.852-19.853V333.466l8.565-2.239 24.462 64.136-17.398 78.459c-2.373 10.704 4.38 21.306 15.084 23.679 10.69 2.373 21.303-4.371 23.679-15.083l18.771-84.647a19.858 19.858 0 0 0-1.096-12.026l-24.153-57.154V202.66l51.197-40.674a16.547 16.547 0 0 0 4.375-5.299l43.551-83.45c4.23-8.1 1.089-18.094-7.01-22.321zM171.921 90.467a16.48 16.48 0 0 0-12.357 2.058c-6.031 3.73-8.81 10.704-7.514 17.272l-.092.088-7.475-7.683 20.167-19.617 7.475 7.684-.204.198z"/><circle cx="304.734" cy="129.707" r="34.286"/></svg>